<?xml version="1.0" encoding="UTF-8"?>
<!DOCTYPE svg PUBLIC "-//W3C//DTD SVG 1.0//EN" "http://www.w3.org/TR/2001/REC-SVG-20010904/DTD/svg10.dtd">
<svg xmlns="http://www.w3.org/2000/svg" xmlns:xlink="http://www.w3.org/1999/xlink" fill="none" height="85" preserveAspectRatio="xMidYMid meet" style="fill: none;" version="1.0" viewBox="0.0 0.0 85.0 85.0" width="85" zoomAndPan="magnify"><rect fill="url(#a)" height="85" rx="12" width="85"/><g id="change1_1"><path d="M45.7672 68.5974H35.4058V41.9499H29V33.1604H35.4058V30.3352C35.4058 25.615 36.491 22.0457 38.6613 19.6274C40.8549 17.2091 44.3787 16 49.2326 16C50.1194 16 51.1929 16.0581 52.4531 16.1744C53.7366 16.2674 54.775 16.372 55.5684 16.4883V25.1732C55.1951 25.1267 54.635 25.0801 53.8883 25.0336C53.1648 24.9639 52.6048 24.929 52.208 24.929C49.9211 24.929 48.2758 25.3941 47.2724 26.3242C46.2689 27.2543 45.7672 28.8587 45.7672 31.1375V33.1604H55.3584L54.2033 41.9499H45.7672V68.5974Z" fill="#fff"/></g><defs><linearGradient gradientUnits="userSpaceOnUse" id="a" x1="-.001" x2="-.001" xlink:actuate="onLoad" xlink:show="other" xlink:type="simple" y1="0" y2="85.001"><stop stop-color="#00B2FF"/><stop offset="1" stop-color="#006AFF"/></linearGradient></defs></svg>